<svg width="239" height="47" viewBox="0 0 239 47" fill="none" xmlns="http://www.w3.org/2000/svg">
<path d="M16.446 31L9.802 15.6H13.652L19.46 29.24H17.194L23.09 15.6H26.632L19.966 31H16.446ZM34.0549 31V28.69L33.8349 28.184V24.048C33.8349 23.3147 33.6076 22.7427 33.1529 22.332C32.7129 21.9213 32.0309 21.716 31.1069 21.716C30.4763 21.716 29.8529 21.8187 29.2369 22.024C28.6356 22.2147 28.1223 22.4787 27.6969 22.816L26.4649 20.418C27.1103 19.9633 27.8876 19.6113 28.7969 19.362C29.7063 19.1127 30.6303 18.988 31.5689 18.988C33.3729 18.988 34.7736 19.4133 35.7709 20.264C36.7683 21.1147 37.2669 22.442 37.2669 24.246V31H34.0549ZM30.4469 31.176C29.5229 31.176 28.7309 31.022 28.0709 30.714C27.4109 30.3913 26.9049 29.9587 26.5529 29.416C26.2009 28.8733 26.0249 28.2647 26.0249 27.59C26.0249 26.886 26.1936 26.27 26.5309 25.742C26.8829 25.214 27.4329 24.8033 28.1809 24.51C28.9289 24.202 29.9043 24.048 31.1069 24.048H34.2529V26.05H31.4809C30.6743 26.05 30.1169 26.182 29.8089 26.446C29.5156 26.71 29.3689 27.04 29.3689 27.436C29.3689 27.876 29.5376 28.228 29.8749 28.492C30.2269 28.7413 30.7036 28.866 31.3049 28.866C31.8769 28.866 32.3903 28.734 32.8449 28.47C33.2996 28.1913 33.6296 27.788 33.8349 27.26L34.3629 28.844C34.1136 29.6067 33.6589 30.186 32.9989 30.582C32.3389 30.978 31.4883 31.176 30.4469 31.176ZM47.5671 18.988C48.5057 18.988 49.3417 19.1787 50.0751 19.56C50.8231 19.9267 51.4097 20.4987 51.8351 21.276C52.2604 22.0387 52.4731 23.0213 52.4731 24.224V31H49.0411V24.752C49.0411 23.7987 48.8284 23.0947 48.4031 22.64C47.9924 22.1853 47.4057 21.958 46.6431 21.958C46.1004 21.958 45.6091 22.0753 45.1691 22.31C44.7437 22.53 44.4064 22.8747 44.1571 23.344C43.9224 23.8133 43.8051 24.4147 43.8051 25.148V31H40.3731V19.164H43.6511V22.442L43.0351 21.452C43.4604 20.66 44.0691 20.0513 44.8611 19.626C45.6531 19.2007 46.5551 18.988 47.5671 18.988ZM60.424 31.176C59.0307 31.176 57.9453 30.824 57.168 30.12C56.3907 29.4013 56.002 28.338 56.002 26.93V16.546H59.434V26.886C59.434 27.3847 59.566 27.7733 59.83 28.052C60.094 28.316 60.4533 28.448 60.908 28.448C61.4507 28.448 61.9127 28.3013 62.294 28.008L63.218 30.428C62.866 30.6773 62.4407 30.868 61.942 31C61.458 31.1173 60.952 31.176 60.424 31.176ZM54.176 22.068V19.428H62.382V22.068H54.176ZM72.4045 31V28.69L72.1845 28.184V24.048C72.1845 23.3147 71.9572 22.7427 71.5025 22.332C71.0625 21.9213 70.3805 21.716 69.4565 21.716C68.8259 21.716 68.2025 21.8187 67.5865 22.024C66.9852 22.2147 66.4719 22.4787 66.0465 22.816L64.8145 20.418C65.4599 19.9633 66.2372 19.6113 67.1465 19.362C68.0559 19.1127 68.9799 18.988 69.9185 18.988C71.7225 18.988 73.1232 19.4133 74.1205 20.264C75.1179 21.1147 75.6165 22.442 75.6165 24.246V31H72.4045ZM68.7965 31.176C67.8725 31.176 67.0805 31.022 66.4205 30.714C65.7605 30.3913 65.2545 29.9587 64.9025 29.416C64.5505 28.8733 64.3745 28.2647 64.3745 27.59C64.3745 26.886 64.5432 26.27 64.8805 25.742C65.2325 25.214 65.7825 24.8033 66.5305 24.51C67.2785 24.202 68.2539 24.048 69.4565 24.048H72.6025V26.05H69.8305C69.0239 26.05 68.4665 26.182 68.1585 26.446C67.8652 26.71 67.7185 27.04 67.7185 27.436C67.7185 27.876 67.8872 28.228 68.2245 28.492C68.5765 28.7413 69.0532 28.866 69.6545 28.866C70.2265 28.866 70.7399 28.734 71.1945 28.47C71.6492 28.1913 71.9792 27.788 72.1845 27.26L72.7125 28.844C72.4632 29.6067 72.0085 30.186 71.3485 30.582C70.6885 30.978 69.8379 31.176 68.7965 31.176ZM84.3746 35.444C83.2599 35.444 82.1819 35.3047 81.1406 35.026C80.1139 34.762 79.2559 34.3587 78.5666 33.816L79.9306 31.352C80.4293 31.7627 81.0599 32.0853 81.8226 32.32C82.5999 32.5693 83.3626 32.694 84.1106 32.694C85.3279 32.694 86.2079 32.4227 86.7506 31.88C87.3079 31.3373 87.5866 30.5307 87.5866 29.46V27.678L87.8066 24.708L87.7626 21.716V19.164H91.0186V29.02C91.0186 31.22 90.4466 32.8407 89.3026 33.882C88.1586 34.9233 86.5159 35.444 84.3746 35.444ZM83.8466 30.428C82.7466 30.428 81.7493 30.1933 80.8546 29.724C79.9746 29.24 79.2633 28.5727 78.7206 27.722C78.1926 26.8567 77.9286 25.852 77.9286 24.708C77.9286 23.5493 78.1926 22.5447 78.7206 21.694C79.2633 20.8287 79.9746 20.1613 80.8546 19.692C81.7493 19.2227 82.7466 18.988 83.8466 18.988C84.8439 18.988 85.7239 19.1933 86.4866 19.604C87.2493 20 87.8433 20.6233 88.2686 21.474C88.6939 22.31 88.9066 23.388 88.9066 24.708C88.9066 26.0133 88.6939 27.0913 88.2686 27.942C87.8433 28.778 87.2493 29.4013 86.4866 29.812C85.7239 30.2227 84.8439 30.428 83.8466 30.428ZM84.5286 27.612C85.1299 27.612 85.6653 27.4947 86.1346 27.26C86.6039 27.0107 86.9706 26.666 87.2346 26.226C87.4986 25.786 87.6306 25.28 87.6306 24.708C87.6306 24.1213 87.4986 23.6153 87.2346 23.19C86.9706 22.75 86.6039 22.4127 86.1346 22.178C85.6653 21.9287 85.1299 21.804 84.5286 21.804C83.9273 21.804 83.3919 21.9287 82.9226 22.178C82.4533 22.4127 82.0793 22.75 81.8006 23.19C81.5366 23.6153 81.4046 24.1213 81.4046 24.708C81.4046 25.28 81.5366 25.786 81.8006 26.226C82.0793 26.666 82.4533 27.0107 82.9226 27.26C83.3919 27.4947 83.9273 27.612 84.5286 27.612ZM100.087 31.176C98.7376 31.176 97.5496 30.912 96.5229 30.384C95.5109 29.856 94.7262 29.1373 94.1689 28.228C93.6116 27.304 93.3329 26.2553 93.3329 25.082C93.3329 23.894 93.6042 22.8453 94.1469 21.936C94.7042 21.012 95.4596 20.2933 96.4129 19.78C97.3662 19.252 98.4442 18.988 99.6469 18.988C100.806 18.988 101.847 19.2373 102.771 19.736C103.71 20.22 104.45 20.924 104.993 21.848C105.536 22.7573 105.807 23.85 105.807 25.126C105.807 25.258 105.8 25.412 105.785 25.588C105.77 25.7493 105.756 25.9033 105.741 26.05H96.1269V24.048H103.937L102.617 24.642C102.617 24.026 102.492 23.4907 102.243 23.036C101.994 22.5813 101.649 22.2293 101.209 21.98C100.769 21.716 100.256 21.584 99.6689 21.584C99.0822 21.584 98.5616 21.716 98.1069 21.98C97.6669 22.2293 97.3222 22.5887 97.0729 23.058C96.8236 23.5127 96.6989 24.0553 96.6989 24.686V25.214C96.6989 25.8593 96.8382 26.4313 97.1169 26.93C97.4102 27.414 97.8136 27.788 98.3269 28.052C98.8549 28.3013 99.4709 28.426 100.175 28.426C100.806 28.426 101.356 28.3307 101.825 28.14C102.309 27.9493 102.749 27.6633 103.145 27.282L104.971 29.262C104.428 29.878 103.746 30.3547 102.925 30.692C102.104 31.0147 101.158 31.176 100.087 31.176ZM115.286 18.988C116.224 18.988 117.06 19.1787 117.794 19.56C118.542 19.9267 119.128 20.4987 119.554 21.276C119.979 22.0387 120.192 23.0213 120.192 24.224V31H116.76V24.752C116.76 23.7987 116.547 23.0947 116.122 22.64C115.711 22.1853 115.124 21.958 114.362 21.958C113.819 21.958 113.328 22.0753 112.888 22.31C112.462 22.53 112.125 22.8747 111.876 23.344C111.641 23.8133 111.524 24.4147 111.524 25.148V31H108.092V19.164H111.37V22.442L110.754 21.452C111.179 20.66 111.788 20.0513 112.58 19.626C113.372 19.2007 114.274 18.988 115.286 18.988ZM127.285 31.176C126.273 31.176 125.297 31.0587 124.359 30.824C123.435 30.5747 122.701 30.2667 122.159 29.9L123.303 27.436C123.845 27.7733 124.483 28.052 125.217 28.272C125.965 28.4773 126.698 28.58 127.417 28.58C128.209 28.58 128.766 28.4847 129.089 28.294C129.426 28.1033 129.595 27.8393 129.595 27.502C129.595 27.2233 129.463 27.018 129.199 26.886C128.949 26.7393 128.612 26.6293 128.187 26.556C127.761 26.4827 127.292 26.4093 126.779 26.336C126.28 26.2627 125.774 26.1673 125.261 26.05C124.747 25.918 124.278 25.7273 123.853 25.478C123.427 25.2287 123.083 24.8913 122.819 24.466C122.569 24.0407 122.445 23.4907 122.445 22.816C122.445 22.068 122.657 21.408 123.083 20.836C123.523 20.264 124.153 19.8167 124.975 19.494C125.796 19.1567 126.779 18.988 127.923 18.988C128.729 18.988 129.551 19.076 130.387 19.252C131.223 19.428 131.919 19.6847 132.477 20.022L131.333 22.464C130.761 22.1267 130.181 21.8993 129.595 21.782C129.023 21.65 128.465 21.584 127.923 21.584C127.16 21.584 126.603 21.6867 126.251 21.892C125.899 22.0973 125.723 22.3613 125.723 22.684C125.723 22.9773 125.847 23.1973 126.097 23.344C126.361 23.4907 126.705 23.608 127.131 23.696C127.556 23.784 128.018 23.8647 128.517 23.938C129.03 23.9967 129.543 24.092 130.057 24.224C130.57 24.356 131.032 24.5467 131.443 24.796C131.868 25.0307 132.213 25.3607 132.477 25.786C132.741 26.1967 132.873 26.7393 132.873 27.414C132.873 28.1473 132.653 28.8 132.213 29.372C131.773 29.9293 131.135 30.3693 130.299 30.692C129.477 31.0147 128.473 31.176 127.285 31.176ZM146.303 31.176C145.188 31.176 144.183 30.9267 143.289 30.428C142.394 29.9147 141.683 29.2033 141.155 28.294C140.641 27.3847 140.385 26.314 140.385 25.082C140.385 23.8353 140.641 22.7573 141.155 21.848C141.683 20.9387 142.394 20.2347 143.289 19.736C144.183 19.2373 145.188 18.988 146.303 18.988C147.3 18.988 148.173 19.208 148.921 19.648C149.669 20.088 150.248 20.7553 150.659 21.65C151.069 22.5447 151.275 23.6887 151.275 25.082C151.275 26.4607 151.077 27.6047 150.681 28.514C150.285 29.4087 149.713 30.076 148.965 30.516C148.231 30.956 147.344 31.176 146.303 31.176ZM146.897 28.36C147.454 28.36 147.96 28.228 148.415 27.964C148.869 27.7 149.229 27.326 149.493 26.842C149.771 26.3433 149.911 25.7567 149.911 25.082C149.911 24.3927 149.771 23.806 149.493 23.322C149.229 22.838 148.869 22.464 148.415 22.2C147.96 21.936 147.454 21.804 146.897 21.804C146.325 21.804 145.811 21.936 145.357 22.2C144.902 22.464 144.535 22.838 144.257 23.322C143.993 23.806 143.861 24.3927 143.861 25.082C143.861 25.7567 143.993 26.3433 144.257 26.842C144.535 27.326 144.902 27.7 145.357 27.964C145.811 28.228 146.325 28.36 146.897 28.36ZM149.999 31V28.58L150.065 25.06L149.845 21.562V14.676H153.277V31H149.999ZM163.713 31V28.69L163.493 28.184V24.048C163.493 23.3147 163.266 22.7427 162.811 22.332C162.371 21.9213 161.689 21.716 160.765 21.716C160.134 21.716 159.511 21.8187 158.895 22.024C158.294 22.2147 157.78 22.4787 157.355 22.816L156.123 20.418C156.768 19.9633 157.546 19.6113 158.455 19.362C159.364 19.1127 160.288 18.988 161.227 18.988C163.031 18.988 164.432 19.4133 165.429 20.264C166.426 21.1147 166.925 22.442 166.925 24.246V31H163.713ZM160.105 31.176C159.181 31.176 158.389 31.022 157.729 30.714C157.069 30.3913 156.563 29.9587 156.211 29.416C155.859 28.8733 155.683 28.2647 155.683 27.59C155.683 26.886 155.852 26.27 156.189 25.742C156.541 25.214 157.091 24.8033 157.839 24.51C158.587 24.202 159.562 24.048 160.765 24.048H163.911V26.05H161.139C160.332 26.05 159.775 26.182 159.467 26.446C159.174 26.71 159.027 27.04 159.027 27.436C159.027 27.876 159.196 28.228 159.533 28.492C159.885 28.7413 160.362 28.866 160.963 28.866C161.535 28.866 162.048 28.734 162.503 28.47C162.958 28.1913 163.288 27.788 163.493 27.26L164.021 28.844C163.772 29.6067 163.317 30.186 162.657 30.582C161.997 30.978 161.146 31.176 160.105 31.176Z" fill="white"/>
<path d="M183.94 31.264C182.722 31.264 181.6 31.0733 180.574 30.692C179.562 30.296 178.674 29.7387 177.912 29.02C177.164 28.3013 176.577 27.458 176.152 26.49C175.741 25.522 175.536 24.4587 175.536 23.3C175.536 22.1413 175.741 21.078 176.152 20.11C176.577 19.142 177.171 18.2987 177.934 17.58C178.696 16.8613 179.591 16.3113 180.618 15.93C181.644 15.534 182.774 15.336 184.006 15.336C185.37 15.336 186.594 15.5633 187.68 16.018C188.78 16.4727 189.704 17.1327 190.452 17.998L188.164 20.11C187.606 19.5233 186.998 19.0907 186.338 18.812C185.678 18.5187 184.959 18.372 184.182 18.372C183.434 18.372 182.752 18.4893 182.136 18.724C181.52 18.9587 180.984 19.296 180.53 19.736C180.09 20.176 179.745 20.6967 179.496 21.298C179.261 21.8993 179.144 22.5667 179.144 23.3C179.144 24.0187 179.261 24.6787 179.496 25.28C179.745 25.8813 180.09 26.4093 180.53 26.864C180.984 27.304 181.512 27.6413 182.114 27.876C182.73 28.1107 183.404 28.228 184.138 28.228C184.842 28.228 185.524 28.118 186.184 27.898C186.858 27.6633 187.511 27.2747 188.142 26.732L190.166 29.306C189.33 29.9367 188.354 30.4207 187.24 30.758C186.14 31.0953 185.04 31.264 183.94 31.264ZM186.91 28.844V23.058H190.166V29.306L186.91 28.844ZM193.234 31V19.164H196.512V22.508L196.05 21.54C196.402 20.704 196.967 20.0733 197.744 19.648C198.522 19.208 199.468 18.988 200.582 18.988V22.156C200.436 22.1413 200.304 22.134 200.186 22.134C200.069 22.1193 199.944 22.112 199.812 22.112C198.874 22.112 198.111 22.3833 197.524 22.926C196.952 23.454 196.666 24.2827 196.666 25.412V31H193.234ZM209.11 31V28.69L208.89 28.184V24.048C208.89 23.3147 208.662 22.7427 208.208 22.332C207.768 21.9213 207.086 21.716 206.162 21.716C205.531 21.716 204.908 21.8187 204.292 22.024C203.69 22.2147 203.177 22.4787 202.752 22.816L201.52 20.418C202.165 19.9633 202.942 19.6113 203.852 19.362C204.761 19.1127 205.685 18.988 206.624 18.988C208.428 18.988 209.828 19.4133 210.826 20.264C211.823 21.1147 212.322 22.442 212.322 24.246V31H209.11ZM205.502 31.176C204.578 31.176 203.786 31.022 203.126 30.714C202.466 30.3913 201.96 29.9587 201.608 29.416C201.256 28.8733 201.08 28.2647 201.08 27.59C201.08 26.886 201.248 26.27 201.586 25.742C201.938 25.214 202.488 24.8033 203.236 24.51C203.984 24.202 204.959 24.048 206.162 24.048H209.308V26.05H206.536C205.729 26.05 205.172 26.182 204.864 26.446C204.57 26.71 204.424 27.04 204.424 27.436C204.424 27.876 204.592 28.228 204.93 28.492C205.282 28.7413 205.758 28.866 206.36 28.866C206.932 28.866 207.445 28.734 207.9 28.47C208.354 28.1913 208.684 27.788 208.89 27.26L209.418 28.844C209.168 29.6067 208.714 30.186 208.054 30.582C207.394 30.978 206.543 31.176 205.502 31.176ZM208.626 17.712C208.244 17.712 207.907 17.646 207.614 17.514C207.32 17.3673 207.056 17.206 206.822 17.03C206.587 16.8393 206.367 16.678 206.162 16.546C205.956 16.3993 205.751 16.326 205.546 16.326C205.252 16.326 205.01 16.436 204.82 16.656C204.629 16.8613 204.519 17.162 204.49 17.558H202.752C202.781 16.5753 203.023 15.798 203.478 15.226C203.932 14.6393 204.548 14.346 205.326 14.346C205.707 14.346 206.044 14.4193 206.338 14.566C206.631 14.698 206.895 14.8593 207.13 15.05C207.379 15.2407 207.606 15.4093 207.812 15.556C208.017 15.688 208.215 15.754 208.406 15.754C208.714 15.754 208.963 15.6513 209.154 15.446C209.344 15.226 209.447 14.9327 209.462 14.566H211.2C211.185 15.5047 210.943 16.2673 210.474 16.854C210.019 17.426 209.403 17.712 208.626 17.712ZM221.146 31.176C219.884 31.176 218.762 30.912 217.78 30.384C216.812 29.856 216.042 29.1373 215.47 28.228C214.912 27.304 214.634 26.2553 214.634 25.082C214.634 23.894 214.912 22.8453 215.47 21.936C216.042 21.012 216.812 20.2933 217.78 19.78C218.762 19.252 219.884 18.988 221.146 18.988C222.392 18.988 223.507 19.252 224.49 19.78C225.472 20.2933 226.242 21.0047 226.8 21.914C227.357 22.8233 227.636 23.8793 227.636 25.082C227.636 26.2553 227.357 27.304 226.8 28.228C226.242 29.1373 225.472 29.856 224.49 30.384C223.507 30.912 222.392 31.176 221.146 31.176ZM221.146 28.36C221.718 28.36 222.231 28.228 222.686 27.964C223.14 27.7 223.5 27.326 223.764 26.842C224.028 26.3433 224.16 25.7567 224.16 25.082C224.16 24.3927 224.028 23.806 223.764 23.322C223.5 22.838 223.14 22.464 222.686 22.2C222.231 21.936 221.718 21.804 221.146 21.804C220.574 21.804 220.06 21.936 219.606 22.2C219.151 22.464 218.784 22.838 218.506 23.322C218.242 23.806 218.11 24.3927 218.11 25.082C218.11 25.7567 218.242 26.3433 218.506 26.842C218.784 27.326 219.151 27.7 219.606 27.964C220.06 28.228 220.574 28.36 221.146 28.36Z" fill="#8CC63F"/>
<rect x="0.5" y="0.5" width="238" height="46" rx="23" stroke="white"/>
</svg>
