<svg width="248" height="49" viewBox="0 0 248 49" fill="none" xmlns="http://www.w3.org/2000/svg">
<rect x="1" y="1" width="246" height="47" rx="23.5" stroke="white" stroke-width="2"/>
<path d="M69.196 32.264C68.008 32.264 66.9007 32.0733 65.874 31.692C64.862 31.296 63.982 30.7387 63.234 30.02C62.486 29.3013 61.8993 28.458 61.474 27.49C61.0633 26.522 60.858 25.4587 60.858 24.3C60.858 23.1413 61.0633 22.078 61.474 21.11C61.8993 20.142 62.486 19.2987 63.234 18.58C63.9967 17.8613 64.884 17.3113 65.896 16.93C66.908 16.534 68.0153 16.336 69.218 16.336C70.5527 16.336 71.7553 16.5707 72.826 17.04C73.9113 17.4947 74.8207 18.1693 75.554 19.064L73.266 21.176C72.738 20.5747 72.1513 20.1273 71.506 19.834C70.8607 19.526 70.1567 19.372 69.394 19.372C68.6753 19.372 68.0153 19.4893 67.414 19.724C66.8127 19.9587 66.292 20.296 65.852 20.736C65.412 21.176 65.0673 21.6967 64.818 22.298C64.5833 22.8993 64.466 23.5667 64.466 24.3C64.466 25.0333 64.5833 25.7007 64.818 26.302C65.0673 26.9033 65.412 27.424 65.852 27.864C66.292 28.304 66.8127 28.6413 67.414 28.876C68.0153 29.1107 68.6753 29.228 69.394 29.228C70.1567 29.228 70.8607 29.0813 71.506 28.788C72.1513 28.48 72.738 28.018 73.266 27.402L75.554 29.514C74.8207 30.4087 73.9113 31.0907 72.826 31.56C71.7553 32.0293 70.5453 32.264 69.196 32.264ZM85.1185 32.264C83.9012 32.264 82.7718 32.066 81.7305 31.67C80.7038 31.274 79.8092 30.7167 79.0465 29.998C78.2985 29.2793 77.7118 28.436 77.2865 27.468C76.8758 26.5 76.6705 25.444 76.6705 24.3C76.6705 23.156 76.8758 22.1 77.2865 21.132C77.7118 20.164 78.3058 19.3207 79.0685 18.602C79.8312 17.8833 80.7258 17.326 81.7525 16.93C82.7792 16.534 83.8938 16.336 85.0965 16.336C86.3138 16.336 87.4285 16.534 88.4405 16.93C89.4672 17.326 90.3545 17.8833 91.1025 18.602C91.8652 19.3207 92.4592 20.164 92.8845 21.132C93.3098 22.0853 93.5225 23.1413 93.5225 24.3C93.5225 25.444 93.3098 26.5073 92.8845 27.49C92.4592 28.458 91.8652 29.3013 91.1025 30.02C90.3545 30.724 89.4672 31.274 88.4405 31.67C87.4285 32.066 86.3212 32.264 85.1185 32.264ZM85.0965 29.228C85.7858 29.228 86.4165 29.1107 86.9885 28.876C87.5752 28.6413 88.0885 28.304 88.5285 27.864C88.9685 27.424 89.3058 26.9033 89.5405 26.302C89.7898 25.7007 89.9145 25.0333 89.9145 24.3C89.9145 23.5667 89.7898 22.8993 89.5405 22.298C89.3058 21.6967 88.9685 21.176 88.5285 20.736C88.1032 20.296 87.5972 19.9587 87.0105 19.724C86.4238 19.4893 85.7858 19.372 85.0965 19.372C84.4072 19.372 83.7692 19.4893 83.1825 19.724C82.6105 19.9587 82.1045 20.296 81.6645 20.736C81.2245 21.176 80.8798 21.6967 80.6305 22.298C80.3958 22.8993 80.2785 23.5667 80.2785 24.3C80.2785 25.0187 80.3958 25.686 80.6305 26.302C80.8798 26.9033 81.2172 27.424 81.6425 27.864C82.0825 28.304 82.5958 28.6413 83.1825 28.876C83.7692 29.1107 84.4072 29.228 85.0965 29.228ZM96.201 32V16.6H99.149L108.235 27.688H106.805V16.6H110.325V32H107.399L98.291 20.912H99.721V32H96.201ZM117.159 32V19.504H112.231V16.6H125.651V19.504H120.723V32H117.159ZM130.846 22.804H138.26V25.576H130.846V22.804ZM131.11 29.14H139.492V32H127.568V16.6H139.206V19.46H131.11V29.14ZM140.418 32L147.04 22.87V25.466L140.704 16.6H144.752L149.13 22.782L147.436 22.804L151.748 16.6H155.62L149.328 25.312V22.76L155.994 32H151.88L147.348 25.466H148.976L144.51 32H140.418ZM160.407 32V19.504H155.479V16.6H168.899V19.504H163.971V32H160.407ZM178.081 32.264C176.864 32.264 175.735 32.066 174.693 31.67C173.667 31.274 172.772 30.7167 172.009 29.998C171.261 29.2793 170.675 28.436 170.249 27.468C169.839 26.5 169.633 25.444 169.633 24.3C169.633 23.156 169.839 22.1 170.249 21.132C170.675 20.164 171.269 19.3207 172.031 18.602C172.794 17.8833 173.689 17.326 174.715 16.93C175.742 16.534 176.857 16.336 178.059 16.336C179.277 16.336 180.391 16.534 181.403 16.93C182.43 17.326 183.317 17.8833 184.065 18.602C184.828 19.3207 185.422 20.164 185.847 21.132C186.273 22.0853 186.485 23.1413 186.485 24.3C186.485 25.444 186.273 26.5073 185.847 27.49C185.422 28.458 184.828 29.3013 184.065 30.02C183.317 30.724 182.43 31.274 181.403 31.67C180.391 32.066 179.284 32.264 178.081 32.264ZM178.059 29.228C178.749 29.228 179.379 29.1107 179.951 28.876C180.538 28.6413 181.051 28.304 181.491 27.864C181.931 27.424 182.269 26.9033 182.503 26.302C182.753 25.7007 182.877 25.0333 182.877 24.3C182.877 23.5667 182.753 22.8993 182.503 22.298C182.269 21.6967 181.931 21.176 181.491 20.736C181.066 20.296 180.56 19.9587 179.973 19.724C179.387 19.4893 178.749 19.372 178.059 19.372C177.37 19.372 176.732 19.4893 176.145 19.724C175.573 19.9587 175.067 20.296 174.627 20.736C174.187 21.176 173.843 21.6967 173.593 22.298C173.359 22.8993 173.241 23.5667 173.241 24.3C173.241 25.0187 173.359 25.686 173.593 26.302C173.843 26.9033 174.18 27.424 174.605 27.864C175.045 28.304 175.559 28.6413 176.145 28.876C176.732 29.1107 177.37 29.228 178.059 29.228Z" fill="white"/>
</svg>
