<svg width="290" height="49" viewBox="0 0 290 49" fill="none" xmlns="http://www.w3.org/2000/svg">
<rect opacity="0.7" x="1" y="1" width="288" height="47" rx="23.5" stroke="white" stroke-width="2"/>
<path d="M38.306 32.264C37.0887 32.264 35.9593 32.066 34.918 31.67C33.8913 31.274 32.9967 30.7167 32.234 29.998C31.486 29.2793 30.8993 28.436 30.474 27.468C30.0633 26.5 29.858 25.444 29.858 24.3C29.858 23.156 30.0633 22.1 30.474 21.132C30.8993 20.164 31.4933 19.3207 32.256 18.602C33.0187 17.8833 33.9133 17.326 34.94 16.93C35.9667 16.534 37.0813 16.336 38.284 16.336C39.5013 16.336 40.616 16.534 41.628 16.93C42.6547 17.326 43.542 17.8833 44.29 18.602C45.0527 19.3207 45.6467 20.164 46.072 21.132C46.4973 22.0853 46.71 23.1413 46.71 24.3C46.71 25.444 46.4973 26.5073 46.072 27.49C45.6467 28.458 45.0527 29.3013 44.29 30.02C43.542 30.724 42.6547 31.274 41.628 31.67C40.616 32.066 39.5087 32.264 38.306 32.264ZM38.284 29.228C38.9733 29.228 39.604 29.1107 40.176 28.876C40.7627 28.6413 41.276 28.304 41.716 27.864C42.156 27.424 42.4933 26.9033 42.728 26.302C42.9773 25.7007 43.102 25.0333 43.102 24.3C43.102 23.5667 42.9773 22.8993 42.728 22.298C42.4933 21.6967 42.156 21.176 41.716 20.736C41.2907 20.296 40.7847 19.9587 40.198 19.724C39.6113 19.4893 38.9733 19.372 38.284 19.372C37.5947 19.372 36.9567 19.4893 36.37 19.724C35.798 19.9587 35.292 20.296 34.852 20.736C34.412 21.176 34.0673 21.6967 33.818 22.298C33.5833 22.8993 33.466 23.5667 33.466 24.3C33.466 25.0187 33.5833 25.686 33.818 26.302C34.0673 26.9033 34.4047 27.424 34.83 27.864C35.27 28.304 35.7833 28.6413 36.37 28.876C36.9567 29.1107 37.5947 29.228 38.284 29.228ZM49.3885 32V16.6H56.9125C58.8485 16.6 60.3005 16.9667 61.2685 17.7C62.2512 18.4333 62.7425 19.4013 62.7425 20.604C62.7425 21.4107 62.5445 22.1147 62.1485 22.716C61.7525 23.3027 61.2098 23.7573 60.5205 24.08C59.8312 24.4027 59.0392 24.564 58.1445 24.564L58.5625 23.662C59.5305 23.662 60.3885 23.8233 61.1365 24.146C61.8845 24.454 62.4638 24.916 62.8745 25.532C63.2998 26.148 63.5125 26.9033 63.5125 27.798C63.5125 29.118 62.9918 30.152 61.9505 30.9C60.9092 31.6333 59.3765 32 57.3525 32H49.3885ZM52.9305 29.316H57.0885C58.0125 29.316 58.7092 29.1693 59.1785 28.876C59.6625 28.568 59.9045 28.084 59.9045 27.424C59.9045 26.7787 59.6625 26.302 59.1785 25.994C58.7092 25.6713 58.0125 25.51 57.0885 25.51H52.6665V22.914H56.4725C57.3378 22.914 57.9978 22.7673 58.4525 22.474C58.9218 22.166 59.1565 21.704 59.1565 21.088C59.1565 20.4867 58.9218 20.0393 58.4525 19.746C57.9978 19.438 57.3378 19.284 56.4725 19.284H52.9305V29.316ZM69.0488 32.264C68.0074 32.264 67.0468 32.0733 66.1668 31.692C65.3014 31.296 64.5901 30.7387 64.0328 30.02L66.0128 27.644C66.4381 28.2013 66.8854 28.6267 67.3548 28.92C67.8241 29.1987 68.3301 29.338 68.8728 29.338C70.3248 29.338 71.0508 28.4873 71.0508 26.786V19.46H65.6388V16.6H74.5928V26.588C74.5928 28.4947 74.1234 29.9173 73.1848 30.856C72.2461 31.7947 70.8674 32.264 69.0488 32.264ZM81.3911 22.804H88.8051V25.576H81.3911V22.804ZM81.6551 29.14H90.0371V32H78.1131V16.6H89.7511V19.46H81.6551V29.14ZM96.0629 32V19.504H91.1349V16.6H104.555V19.504H99.6269V32H96.0629ZM106.472 32V16.6H110.036V32H106.472ZM118.247 32L111.603 16.6H115.453L121.261 30.24H118.995L124.891 16.6H128.433L121.767 32H118.247ZM137.027 32.264C135.809 32.264 134.68 32.066 133.639 31.67C132.612 31.274 131.717 30.7167 130.955 29.998C130.207 29.2793 129.62 28.436 129.195 27.468C128.784 26.5 128.579 25.444 128.579 24.3C128.579 23.156 128.784 22.1 129.195 21.132C129.62 20.164 130.214 19.3207 130.977 18.602C131.739 17.8833 132.634 17.326 133.661 16.93C134.687 16.534 135.802 16.336 137.005 16.336C138.222 16.336 139.337 16.534 140.349 16.93C141.375 17.326 142.263 17.8833 143.011 18.602C143.773 19.3207 144.367 20.164 144.793 21.132C145.218 22.0853 145.431 23.1413 145.431 24.3C145.431 25.444 145.218 26.5073 144.793 27.49C144.367 28.458 143.773 29.3013 143.011 30.02C142.263 30.724 141.375 31.274 140.349 31.67C139.337 32.066 138.229 32.264 137.027 32.264ZM137.005 29.228C137.694 29.228 138.325 29.1107 138.897 28.876C139.483 28.6413 139.997 28.304 140.437 27.864C140.877 27.424 141.214 26.9033 141.449 26.302C141.698 25.7007 141.823 25.0333 141.823 24.3C141.823 23.5667 141.698 22.8993 141.449 22.298C141.214 21.6967 140.877 21.176 140.437 20.736C140.011 20.296 139.505 19.9587 138.919 19.724C138.332 19.4893 137.694 19.372 137.005 19.372C136.315 19.372 135.677 19.4893 135.091 19.724C134.519 19.9587 134.013 20.296 133.573 20.736C133.133 21.176 132.788 21.6967 132.539 22.298C132.304 22.8993 132.187 23.5667 132.187 24.3C132.187 25.0187 132.304 25.686 132.539 26.302C132.788 26.9033 133.125 27.424 133.551 27.864C133.991 28.304 134.504 28.6413 135.091 28.876C135.677 29.1107 136.315 29.228 137.005 29.228ZM154.34 32V16.6H161.336C163.008 16.6 164.482 16.9227 165.758 17.568C167.034 18.1987 168.031 19.086 168.75 20.23C169.468 21.374 169.828 22.7307 169.828 24.3C169.828 25.8547 169.468 27.2113 168.75 28.37C168.031 29.514 167.034 30.4087 165.758 31.054C164.482 31.6847 163.008 32 161.336 32H154.34ZM157.904 29.074H161.16C162.186 29.074 163.074 28.8833 163.822 28.502C164.584 28.106 165.171 27.5487 165.582 26.83C166.007 26.1113 166.22 25.268 166.22 24.3C166.22 23.3173 166.007 22.474 165.582 21.77C165.171 21.0513 164.584 20.5013 163.822 20.12C163.074 19.724 162.186 19.526 161.16 19.526H157.904V29.074ZM179.995 32.264C178.778 32.264 177.649 32.066 176.607 31.67C175.581 31.274 174.686 30.7167 173.923 29.998C173.175 29.2793 172.589 28.436 172.163 27.468C171.753 26.5 171.547 25.444 171.547 24.3C171.547 23.156 171.753 22.1 172.163 21.132C172.589 20.164 173.183 19.3207 173.945 18.602C174.708 17.8833 175.603 17.326 176.629 16.93C177.656 16.534 178.771 16.336 179.973 16.336C181.191 16.336 182.305 16.534 183.317 16.93C184.344 17.326 185.231 17.8833 185.979 18.602C186.742 19.3207 187.336 20.164 187.761 21.132C188.187 22.0853 188.399 23.1413 188.399 24.3C188.399 25.444 188.187 26.5073 187.761 27.49C187.336 28.458 186.742 29.3013 185.979 30.02C185.231 30.724 184.344 31.274 183.317 31.67C182.305 32.066 181.198 32.264 179.995 32.264ZM179.973 29.228C180.663 29.228 181.293 29.1107 181.865 28.876C182.452 28.6413 182.965 28.304 183.405 27.864C183.845 27.424 184.183 26.9033 184.417 26.302C184.667 25.7007 184.791 25.0333 184.791 24.3C184.791 23.5667 184.667 22.8993 184.417 22.298C184.183 21.6967 183.845 21.176 183.405 20.736C182.98 20.296 182.474 19.9587 181.887 19.724C181.301 19.4893 180.663 19.372 179.973 19.372C179.284 19.372 178.646 19.4893 178.059 19.724C177.487 19.9587 176.981 20.296 176.541 20.736C176.101 21.176 175.757 21.6967 175.507 22.298C175.273 22.8993 175.155 23.5667 175.155 24.3C175.155 25.0187 175.273 25.686 175.507 26.302C175.757 26.9033 176.094 27.424 176.519 27.864C176.959 28.304 177.473 28.6413 178.059 28.876C178.646 29.1107 179.284 29.228 179.973 29.228ZM200.146 32.264C199.105 32.264 198.144 32.0733 197.264 31.692C196.399 31.296 195.688 30.7387 195.13 30.02L197.11 27.644C197.536 28.2013 197.983 28.6267 198.452 28.92C198.922 29.1987 199.428 29.338 199.97 29.338C201.422 29.338 202.148 28.4873 202.148 26.786V19.46H196.736V16.6H205.69V26.588C205.69 28.4947 205.221 29.9173 204.282 30.856C203.344 31.7947 201.965 32.264 200.146 32.264ZM216.691 32.264C215.473 32.264 214.344 32.066 213.303 31.67C212.276 31.274 211.381 30.7167 210.619 29.998C209.871 29.2793 209.284 28.436 208.859 27.468C208.448 26.5 208.243 25.444 208.243 24.3C208.243 23.156 208.448 22.1 208.859 21.132C209.284 20.164 209.878 19.3207 210.641 18.602C211.403 17.8833 212.298 17.326 213.325 16.93C214.351 16.534 215.466 16.336 216.669 16.336C217.886 16.336 219.001 16.534 220.013 16.93C221.039 17.326 221.927 17.8833 222.675 18.602C223.437 19.3207 224.031 20.164 224.457 21.132C224.882 22.0853 225.095 23.1413 225.095 24.3C225.095 25.444 224.882 26.5073 224.457 27.49C224.031 28.458 223.437 29.3013 222.675 30.02C221.927 30.724 221.039 31.274 220.013 31.67C219.001 32.066 217.893 32.264 216.691 32.264ZM216.669 29.228C217.358 29.228 217.989 29.1107 218.561 28.876C219.147 28.6413 219.661 28.304 220.101 27.864C220.541 27.424 220.878 26.9033 221.113 26.302C221.362 25.7007 221.487 25.0333 221.487 24.3C221.487 23.5667 221.362 22.8993 221.113 22.298C220.878 21.6967 220.541 21.176 220.101 20.736C219.675 20.296 219.169 19.9587 218.583 19.724C217.996 19.4893 217.358 19.372 216.669 19.372C215.979 19.372 215.341 19.4893 214.755 19.724C214.183 19.9587 213.677 20.296 213.237 20.736C212.797 21.176 212.452 21.6967 212.203 22.298C211.968 22.8993 211.851 23.5667 211.851 24.3C211.851 25.0187 211.968 25.686 212.203 26.302C212.452 26.9033 212.789 27.424 213.215 27.864C213.655 28.304 214.168 28.6413 214.755 28.876C215.341 29.1107 215.979 29.228 216.669 29.228ZM235.209 32.264C233.992 32.264 232.87 32.0733 231.843 31.692C230.831 31.296 229.944 30.7387 229.181 30.02C228.433 29.3013 227.847 28.458 227.421 27.49C227.011 26.522 226.805 25.4587 226.805 24.3C226.805 23.1413 227.011 22.078 227.421 21.11C227.847 20.142 228.441 19.2987 229.203 18.58C229.966 17.8613 230.861 17.3113 231.887 16.93C232.914 16.534 234.043 16.336 235.275 16.336C236.639 16.336 237.864 16.5633 238.949 17.018C240.049 17.4727 240.973 18.1327 241.721 18.998L239.433 21.11C238.876 20.5233 238.267 20.0907 237.607 19.812C236.947 19.5187 236.229 19.372 235.451 19.372C234.703 19.372 234.021 19.4893 233.405 19.724C232.789 19.9587 232.254 20.296 231.799 20.736C231.359 21.176 231.015 21.6967 230.765 22.298C230.531 22.8993 230.413 23.5667 230.413 24.3C230.413 25.0187 230.531 25.6787 230.765 26.28C231.015 26.8813 231.359 27.4093 231.799 27.864C232.254 28.304 232.782 28.6413 233.383 28.876C233.999 29.1107 234.674 29.228 235.407 29.228C236.111 29.228 236.793 29.118 237.453 28.898C238.128 28.6633 238.781 28.2747 239.411 27.732L241.435 30.306C240.599 30.9367 239.624 31.4207 238.509 31.758C237.409 32.0953 236.309 32.264 235.209 32.264ZM238.179 29.844V24.058H241.435V30.306L238.179 29.844ZM252.226 32.264C251.009 32.264 249.879 32.066 248.838 31.67C247.811 31.274 246.917 30.7167 246.154 29.998C245.406 29.2793 244.819 28.436 244.394 27.468C243.983 26.5 243.778 25.444 243.778 24.3C243.778 23.156 243.983 22.1 244.394 21.132C244.819 20.164 245.413 19.3207 246.176 18.602C246.939 17.8833 247.833 17.326 248.86 16.93C249.887 16.534 251.001 16.336 252.204 16.336C253.421 16.336 254.536 16.534 255.548 16.93C256.575 17.326 257.462 17.8833 258.21 18.602C258.973 19.3207 259.567 20.164 259.992 21.132C260.417 22.0853 260.63 23.1413 260.63 24.3C260.63 25.444 260.417 26.5073 259.992 27.49C259.567 28.458 258.973 29.3013 258.21 30.02C257.462 30.724 256.575 31.274 255.548 31.67C254.536 32.066 253.429 32.264 252.226 32.264ZM252.204 29.228C252.893 29.228 253.524 29.1107 254.096 28.876C254.683 28.6413 255.196 28.304 255.636 27.864C256.076 27.424 256.413 26.9033 256.648 26.302C256.897 25.7007 257.022 25.0333 257.022 24.3C257.022 23.5667 256.897 22.8993 256.648 22.298C256.413 21.6967 256.076 21.176 255.636 20.736C255.211 20.296 254.705 19.9587 254.118 19.724C253.531 19.4893 252.893 19.372 252.204 19.372C251.515 19.372 250.877 19.4893 250.29 19.724C249.718 19.9587 249.212 20.296 248.772 20.736C248.332 21.176 247.987 21.6967 247.738 22.298C247.503 22.8993 247.386 23.5667 247.386 24.3C247.386 25.0187 247.503 25.686 247.738 26.302C247.987 26.9033 248.325 27.424 248.75 27.864C249.19 28.304 249.703 28.6413 250.29 28.876C250.877 29.1107 251.515 29.228 252.204 29.228Z" fill="white"/>
</svg>
