<svg width="248" height="49" viewBox="0 0 248 49" fill="none" xmlns="http://www.w3.org/2000/svg">
<rect x="1" y="1" width="246" height="47" rx="23.5" stroke="white" stroke-width="2"/>
<path d="M46.196 32.264C45.008 32.264 43.9007 32.0733 42.874 31.692C41.862 31.296 40.982 30.7387 40.234 30.02C39.486 29.3013 38.8993 28.458 38.474 27.49C38.0633 26.522 37.858 25.4587 37.858 24.3C37.858 23.1413 38.0633 22.078 38.474 21.11C38.8993 20.142 39.486 19.2987 40.234 18.58C40.9967 17.8613 41.884 17.3113 42.896 16.93C43.908 16.534 45.0153 16.336 46.218 16.336C47.5527 16.336 48.7553 16.5707 49.826 17.04C50.9113 17.4947 51.8207 18.1693 52.554 19.064L50.266 21.176C49.738 20.5747 49.1513 20.1273 48.506 19.834C47.8607 19.526 47.1567 19.372 46.394 19.372C45.6753 19.372 45.0153 19.4893 44.414 19.724C43.8127 19.9587 43.292 20.296 42.852 20.736C42.412 21.176 42.0673 21.6967 41.818 22.298C41.5833 22.8993 41.466 23.5667 41.466 24.3C41.466 25.0333 41.5833 25.7007 41.818 26.302C42.0673 26.9033 42.412 27.424 42.852 27.864C43.292 28.304 43.8127 28.6413 44.414 28.876C45.0153 29.1107 45.6753 29.228 46.394 29.228C47.1567 29.228 47.8607 29.0813 48.506 28.788C49.1513 28.48 49.738 28.018 50.266 27.402L52.554 29.514C51.8207 30.4087 50.9113 31.0907 49.826 31.56C48.7553 32.0293 47.5453 32.264 46.196 32.264ZM62.1185 32.264C60.9012 32.264 59.7718 32.066 58.7305 31.67C57.7038 31.274 56.8092 30.7167 56.0465 29.998C55.2985 29.2793 54.7118 28.436 54.2865 27.468C53.8758 26.5 53.6705 25.444 53.6705 24.3C53.6705 23.156 53.8758 22.1 54.2865 21.132C54.7118 20.164 55.3058 19.3207 56.0685 18.602C56.8312 17.8833 57.7258 17.326 58.7525 16.93C59.7792 16.534 60.8938 16.336 62.0965 16.336C63.3138 16.336 64.4285 16.534 65.4405 16.93C66.4672 17.326 67.3545 17.8833 68.1025 18.602C68.8652 19.3207 69.4592 20.164 69.8845 21.132C70.3098 22.0853 70.5225 23.1413 70.5225 24.3C70.5225 25.444 70.3098 26.5073 69.8845 27.49C69.4592 28.458 68.8652 29.3013 68.1025 30.02C67.3545 30.724 66.4672 31.274 65.4405 31.67C64.4285 32.066 63.3212 32.264 62.1185 32.264ZM62.0965 29.228C62.7858 29.228 63.4165 29.1107 63.9885 28.876C64.5752 28.6413 65.0885 28.304 65.5285 27.864C65.9685 27.424 66.3058 26.9033 66.5405 26.302C66.7898 25.7007 66.9145 25.0333 66.9145 24.3C66.9145 23.5667 66.7898 22.8993 66.5405 22.298C66.3058 21.6967 65.9685 21.176 65.5285 20.736C65.1032 20.296 64.5972 19.9587 64.0105 19.724C63.4238 19.4893 62.7858 19.372 62.0965 19.372C61.4072 19.372 60.7692 19.4893 60.1825 19.724C59.6105 19.9587 59.1045 20.296 58.6645 20.736C58.2245 21.176 57.8798 21.6967 57.6305 22.298C57.3958 22.8993 57.2785 23.5667 57.2785 24.3C57.2785 25.0187 57.3958 25.686 57.6305 26.302C57.8798 26.9033 58.2172 27.424 58.6425 27.864C59.0825 28.304 59.5958 28.6413 60.1825 28.876C60.7692 29.1107 61.4072 29.228 62.0965 29.228ZM73.201 32V16.6H76.149L82.705 27.468H81.143L87.589 16.6H90.515L90.559 32H87.215L87.193 21.726H87.809L82.661 30.372H81.055L75.797 21.726H76.545V32H73.201ZM101.693 32.264C100.475 32.264 99.3461 32.066 98.3047 31.67C97.2781 31.274 96.3834 30.7167 95.6207 29.998C94.8727 29.2793 94.2861 28.436 93.8607 27.468C93.4501 26.5 93.2447 25.444 93.2447 24.3C93.2447 23.156 93.4501 22.1 93.8607 21.132C94.2861 20.164 94.8801 19.3207 95.6427 18.602C96.4054 17.8833 97.3001 17.326 98.3267 16.93C99.3534 16.534 100.468 16.336 101.671 16.336C102.888 16.336 104.003 16.534 105.015 16.93C106.041 17.326 106.929 17.8833 107.677 18.602C108.439 19.3207 109.033 20.164 109.459 21.132C109.884 22.0853 110.097 23.1413 110.097 24.3C110.097 25.444 109.884 26.5073 109.459 27.49C109.033 28.458 108.439 29.3013 107.677 30.02C106.929 30.724 106.041 31.274 105.015 31.67C104.003 32.066 102.895 32.264 101.693 32.264ZM101.671 29.228C102.36 29.228 102.991 29.1107 103.563 28.876C104.149 28.6413 104.663 28.304 105.103 27.864C105.543 27.424 105.88 26.9033 106.115 26.302C106.364 25.7007 106.489 25.0333 106.489 24.3C106.489 23.5667 106.364 22.8993 106.115 22.298C105.88 21.6967 105.543 21.176 105.103 20.736C104.677 20.296 104.171 19.9587 103.585 19.724C102.998 19.4893 102.36 19.372 101.671 19.372C100.981 19.372 100.343 19.4893 99.7567 19.724C99.1847 19.9587 98.6787 20.296 98.2387 20.736C97.7987 21.176 97.4541 21.6967 97.2047 22.298C96.9701 22.8993 96.8527 23.5667 96.8527 24.3C96.8527 25.0187 96.9701 25.686 97.2047 26.302C97.4541 26.9033 97.7914 27.424 98.2167 27.864C98.6567 28.304 99.1701 28.6413 99.7567 28.876C100.343 29.1107 100.981 29.228 101.671 29.228ZM121.844 32.264C120.802 32.264 119.842 32.0733 118.962 31.692C118.096 31.296 117.385 30.7387 116.828 30.02L118.808 27.644C119.233 28.2013 119.68 28.6267 120.15 28.92C120.619 29.1987 121.125 29.338 121.668 29.338C123.12 29.338 123.846 28.4873 123.846 26.786V19.46H118.434V16.6H127.388V26.588C127.388 28.4947 126.918 29.9173 125.98 30.856C125.041 31.7947 123.662 32.264 121.844 32.264ZM138.388 32.264C137.171 32.264 136.041 32.066 135 31.67C133.973 31.274 133.079 30.7167 132.316 29.998C131.568 29.2793 130.981 28.436 130.556 27.468C130.145 26.5 129.94 25.444 129.94 24.3C129.94 23.156 130.145 22.1 130.556 21.132C130.981 20.164 131.575 19.3207 132.338 18.602C133.101 17.8833 133.995 17.326 135.022 16.93C136.049 16.534 137.163 16.336 138.366 16.336C139.583 16.336 140.698 16.534 141.71 16.93C142.737 17.326 143.624 17.8833 144.372 18.602C145.135 19.3207 145.729 20.164 146.154 21.132C146.579 22.0853 146.792 23.1413 146.792 24.3C146.792 25.444 146.579 26.5073 146.154 27.49C145.729 28.458 145.135 29.3013 144.372 30.02C143.624 30.724 142.737 31.274 141.71 31.67C140.698 32.066 139.591 32.264 138.388 32.264ZM138.366 29.228C139.055 29.228 139.686 29.1107 140.258 28.876C140.845 28.6413 141.358 28.304 141.798 27.864C142.238 27.424 142.575 26.9033 142.81 26.302C143.059 25.7007 143.184 25.0333 143.184 24.3C143.184 23.5667 143.059 22.8993 142.81 22.298C142.575 21.6967 142.238 21.176 141.798 20.736C141.373 20.296 140.867 19.9587 140.28 19.724C139.693 19.4893 139.055 19.372 138.366 19.372C137.677 19.372 137.039 19.4893 136.452 19.724C135.88 19.9587 135.374 20.296 134.934 20.736C134.494 21.176 134.149 21.6967 133.9 22.298C133.665 22.8993 133.548 23.5667 133.548 24.3C133.548 25.0187 133.665 25.686 133.9 26.302C134.149 26.9033 134.487 27.424 134.912 27.864C135.352 28.304 135.865 28.6413 136.452 28.876C137.039 29.1107 137.677 29.228 138.366 29.228ZM156.907 32.264C155.689 32.264 154.567 32.0733 153.541 31.692C152.529 31.296 151.641 30.7387 150.879 30.02C150.131 29.3013 149.544 28.458 149.119 27.49C148.708 26.522 148.503 25.4587 148.503 24.3C148.503 23.1413 148.708 22.078 149.119 21.11C149.544 20.142 150.138 19.2987 150.901 18.58C151.663 17.8613 152.558 17.3113 153.585 16.93C154.611 16.534 155.741 16.336 156.973 16.336C158.337 16.336 159.561 16.5633 160.647 17.018C161.747 17.4727 162.671 18.1327 163.419 18.998L161.131 21.11C160.573 20.5233 159.965 20.0907 159.305 19.812C158.645 19.5187 157.926 19.372 157.149 19.372C156.401 19.372 155.719 19.4893 155.103 19.724C154.487 19.9587 153.951 20.296 153.497 20.736C153.057 21.176 152.712 21.6967 152.463 22.298C152.228 22.8993 152.111 23.5667 152.111 24.3C152.111 25.0187 152.228 25.6787 152.463 26.28C152.712 26.8813 153.057 27.4093 153.497 27.864C153.951 28.304 154.479 28.6413 155.081 28.876C155.697 29.1107 156.371 29.228 157.105 29.228C157.809 29.228 158.491 29.118 159.151 28.898C159.825 28.6633 160.478 28.2747 161.109 27.732L163.133 30.306C162.297 30.9367 161.321 31.4207 160.207 31.758C159.107 32.0953 158.007 32.264 156.907 32.264ZM159.877 29.844V24.058H163.133V30.306L159.877 29.844ZM164.419 32L171.283 16.6H174.803L181.689 32H177.949L172.317 18.404H173.725L168.071 32H164.419ZM167.851 28.7L168.797 25.994H176.717L177.685 28.7H167.851ZM183.287 32V16.6H189.953C191.332 16.6 192.52 16.8273 193.517 17.282C194.514 17.722 195.284 18.36 195.827 19.196C196.37 20.032 196.641 21.0293 196.641 22.188C196.641 23.332 196.37 24.322 195.827 25.158C195.284 25.9793 194.514 26.61 193.517 27.05C192.52 27.49 191.332 27.71 189.953 27.71H185.267L186.851 26.148V32H183.287ZM193.077 32L189.227 26.412H193.033L196.927 32H193.077ZM186.851 26.544L185.267 24.872H189.755C190.855 24.872 191.676 24.6373 192.219 24.168C192.762 23.684 193.033 23.024 193.033 22.188C193.033 21.3373 192.762 20.6773 192.219 20.208C191.676 19.7387 190.855 19.504 189.755 19.504H185.267L186.851 17.81V26.544ZM202.305 26.654C202.305 26.1407 202.386 25.686 202.547 25.29C202.723 24.894 202.936 24.542 203.185 24.234C203.449 23.926 203.728 23.64 204.021 23.376C204.315 23.112 204.586 22.8627 204.835 22.628C205.099 22.3787 205.312 22.122 205.473 21.858C205.649 21.594 205.737 21.3007 205.737 20.978C205.737 20.45 205.517 20.0247 205.077 19.702C204.652 19.3793 204.08 19.218 203.361 19.218C202.672 19.218 202.056 19.3647 201.513 19.658C200.971 19.9367 200.523 20.3327 200.171 20.846L197.509 19.284C198.096 18.3893 198.91 17.678 199.951 17.15C200.993 16.6073 202.254 16.336 203.735 16.336C204.835 16.336 205.803 16.4973 206.639 16.82C207.475 17.128 208.128 17.5827 208.597 18.184C209.081 18.7853 209.323 19.526 209.323 20.406C209.323 20.978 209.235 21.484 209.059 21.924C208.883 22.364 208.656 22.7453 208.377 23.068C208.099 23.3907 207.798 23.6913 207.475 23.97C207.167 24.2487 206.874 24.52 206.595 24.784C206.317 25.048 206.082 25.3267 205.891 25.62C205.715 25.9133 205.627 26.258 205.627 26.654H202.305ZM203.977 32.176C203.361 32.176 202.855 31.978 202.459 31.582C202.063 31.186 201.865 30.7167 201.865 30.174C201.865 29.6167 202.063 29.1547 202.459 28.788C202.855 28.4067 203.361 28.216 203.977 28.216C204.608 28.216 205.114 28.4067 205.495 28.788C205.891 29.1547 206.089 29.6167 206.089 30.174C206.089 30.7167 205.891 31.186 205.495 31.582C205.114 31.978 204.608 32.176 203.977 32.176Z" fill="white"/>
</svg>
