<svg width="24" height="28" viewBox="0 0 24 28" fill="none" xmlns="http://www.w3.org/2000/svg">
<g clip-path="url(#clip0_31_282)">
<path opacity="0.1" d="M23.1951 19.1991C22.757 17.8932 21.766 18.1209 21.0633 18.8025C20.3606 19.4842 19.6597 20.5018 18.8861 20.3063C18.234 20.1413 17.6994 19.1039 17.4105 17.9071C17.1217 16.7103 17.0369 15.3608 16.9556 14.0391C16.8534 12.3785 16.7513 10.717 16.6493 9.05434C16.612 8.44639 16.5678 7.80475 16.3804 7.32373C16.1327 6.68927 15.679 6.4941 15.2908 6.68486C14.9026 6.87562 14.5716 7.3872 14.2884 7.95784C13.3813 9.78518 12.8673 12.2554 12.074 14.289C11.9125 14.703 11.73 15.1122 11.4891 15.3124C11.1414 15.5999 10.7421 15.3965 10.4024 15.0764C9.29392 14.0339 8.54924 11.9066 7.81743 9.92114C7.46143 8.95633 7.02734 7.92443 6.43506 7.81939C5.81189 7.70638 5.27095 8.67517 4.9047 9.7011C3.7293 13.0017 3.4774 17.5082 2.05747 20.3872C1.88119 20.7442 1.68668 21.0741 1.46258 21.2958C1.39245 21.3656 1.31521 21.4275 1.23222 21.4802C-0.00668408 22.2626 -0.419653 25.4034 0.496695 27.2655C0.516465 27.3051 0.536602 27.3448 0.557106 27.3845C0.693134 27.6466 0.847257 27.8944 1.03117 27.9726C1.20222 28.0447 1.37891 27.9615 1.54845 27.8714C2.63213 27.2945 3.70281 26.4125 4.82358 26.4553C5.91379 26.495 6.94794 27.4138 8.02598 27.7446C8.75084 27.967 9.48829 27.9226 10.2209 27.8746C12.6618 27.7144 15.1023 27.5281 17.5423 27.3155C18.7532 27.214 19.9648 27.1172 21.1757 27.0042C22.1085 26.9158 22.7027 26.7211 22.811 24.7458C22.9058 23.016 23.7571 20.8742 23.1951 19.1991Z" fill="#8CC63F"/>
<path d="M15.0194 20.8268C15.1102 20.8434 15.1991 20.8696 15.2847 20.9049C17.1928 21.692 17.161 26.8442 17.161 26.8442H17.7227C17.7227 26.8442 17.8996 24.6332 18.6705 21.4783C19.3648 18.6401 16.5169 16.0965 15.9384 15.6142C15.8733 15.5605 15.8373 15.532 15.8373 15.532C12.9687 16.6213 15.0194 20.8268 15.0194 20.8268Z" fill="#8CC63F"/>
<path opacity="0.2" d="M15.6287 15.6219C15.6948 15.5905 15.7631 15.5605 15.8356 15.5332C15.8356 15.5332 15.871 15.5616 15.9368 15.6154C16.5151 16.0978 19.3633 18.6413 18.6688 21.4794C17.8982 24.634 17.7229 26.8443 17.7229 26.8443H17.407C17.407 26.8443 17.5821 24.6333 18.3547 21.4784C19.046 18.6537 16.2255 16.1194 15.6287 15.6219Z" fill="white"/>
<path d="M5.55505 21.4793C6.32767 24.6339 6.50195 26.8442 6.50195 26.8442H7.06478C7.06478 26.8442 7.02941 21.4596 9.07162 20.8585C9.11585 20.8448 9.16087 20.8339 9.20641 20.826C9.20641 20.826 11.2582 16.6205 8.38852 15.5323C8.38852 15.5323 8.35948 15.5546 8.30719 15.598C7.77519 16.0377 4.8529 18.6084 5.55505 21.4793Z" fill="#8CC63F"/>
<path opacity="0.1" d="M15.0194 20.8268C15.1102 20.8434 15.1991 20.8696 15.2847 20.9049C15.6297 19.161 15.8482 17.3929 15.9384 15.6153C15.8733 15.5616 15.8372 15.5331 15.8372 15.5331C12.9687 16.6213 15.0194 20.8268 15.0194 20.8268Z" fill="black"/>
<path opacity="0.1" d="M8.30591 15.5988C8.42287 17.3712 8.67851 19.1309 9.07033 20.8607C9.11457 20.8469 9.15958 20.8361 9.20512 20.8281C9.20512 20.8281 11.2569 16.6226 8.38724 15.5344C8.38827 15.5331 8.3593 15.5553 8.30591 15.5988Z" fill="black"/>
<path d="M9.35626 21.624C9.55446 22.4313 9.78659 23.2596 10.0526 24.1088C10.0526 24.1088 11.3162 25.4685 14.3684 24.1088C14.6219 23.3217 14.8356 22.5214 15.0087 21.7114C15.747 18.3923 16.6325 12.0676 14.7458 5.57086C14.1841 3.61792 13.3857 1.74613 12.3695 0C12.3695 0 10.7578 1.91142 9.57485 5.56987C8.39189 9.22831 7.63916 14.6346 9.35626 21.624Z" fill="#E3E8F4"/>
<path d="M9.5752 5.56987C12.4502 6.99131 14.7478 5.56987 14.7478 5.56987C14.1853 3.61717 13.3862 1.74572 12.3694 0C12.3694 0 10.7577 1.91142 9.5752 5.56987Z" fill="#8CC63F"/>
<path d="M9.3562 21.624C9.49065 22.1707 9.64041 22.7267 9.8055 23.2921C9.8838 23.5617 9.96636 23.8336 10.0532 24.1076C10.0532 24.1076 11.3168 25.4673 14.3689 24.1076C14.3689 24.1076 14.468 23.8193 14.6166 23.2921C14.7277 22.8941 14.8661 22.3599 15.0103 21.7102C15.0103 21.7102 13.8741 22.2112 12.2614 22.2112C11.265 22.2148 10.2778 22.0152 9.3562 21.624V21.624Z" fill="#AFC0E0"/>
<path d="M9.80542 23.2922C9.88372 23.5618 9.96629 23.8337 10.0531 24.1078C10.0531 24.1078 11.3167 25.4675 14.3689 24.1078C14.3689 24.1078 14.4679 23.8195 14.6166 23.2922C14.6168 23.2922 11.5059 24.2168 9.80542 23.2922Z" fill="#E3E8F4"/>
<path opacity="0.2" d="M13.6857 24.1081C13.9391 23.3209 14.1529 22.5207 14.326 21.7106C15.0642 18.3916 15.9498 12.0661 14.0631 5.57012C13.556 3.81222 12.8576 2.11936 11.9813 0.523986C12.2208 0.177225 12.3705 0.000396729 12.3705 0.000396729C13.3868 1.74605 14.1856 3.61738 14.7477 5.56991C16.6342 12.0665 15.7488 18.3914 15.0105 21.7104C14.8374 22.5205 14.6237 23.3207 14.3702 24.1078C13.1643 24.6446 12.2378 24.7572 11.5579 24.6972C12.1387 24.6518 12.8441 24.4826 13.6857 24.1081Z" fill="white"/>
<path d="M11.9153 15.0542C11.4749 15.0542 11.1625 14.9939 10.9604 14.8698C10.8759 14.8227 10.806 14.7519 10.7585 14.6656C10.7111 14.5793 10.6882 14.4809 10.6924 14.3818C10.6924 14.0406 10.8919 13.872 11.108 13.7408C11.042 13.711 10.9863 13.6611 10.9485 13.5977C10.9142 13.5374 10.8965 13.4686 10.8973 13.3987C10.8998 13.2774 10.9446 13.1612 11.0234 13.0713C11.1188 12.9608 11.2235 12.8592 11.3363 12.7678C11.3677 12.7405 11.4002 12.7122 11.4333 12.6825C11.2539 12.6189 11.1014 12.4929 11.002 12.3259C10.9023 12.1515 10.8514 11.9519 10.855 11.7493C10.8486 11.4484 10.9543 11.1564 11.1502 10.9335C11.3622 10.702 11.6706 10.5796 12.0419 10.5796C12.2686 10.5713 12.4927 10.6319 12.6864 10.7538C12.6905 10.7507 12.6945 10.7478 12.6985 10.7449L12.7013 10.7429C12.7811 10.6801 12.857 10.612 12.9283 10.539C12.9438 10.5277 13.3081 10.2562 13.4043 9.88424C13.4184 9.82478 13.4245 9.76361 13.4225 9.70244C13.4803 9.74981 13.5291 9.8079 13.5663 9.87372C13.6156 9.96212 13.6416 10.0624 13.6416 10.1644C13.6447 10.2945 13.6116 10.4227 13.5462 10.534C13.4916 10.6259 13.4145 10.7014 13.3227 10.7527C13.2001 10.8218 13.0686 10.8724 12.9322 10.9031C12.9088 10.909 12.8849 10.9151 12.8612 10.9217C12.9507 11.0108 13.0242 11.1156 13.0781 11.2313C13.1403 11.3723 13.1712 11.5259 13.1684 11.6809C13.1738 11.8348 13.1473 11.9881 13.0906 12.1306C13.034 12.2731 12.9486 12.4015 12.8401 12.5071C12.7361 12.6039 12.6145 12.6783 12.4823 12.7259C12.3407 12.7768 12.1918 12.8022 12.0419 12.8011C11.9264 12.8027 11.8112 12.7902 11.6985 12.7639C11.5065 12.9433 11.4148 13.0442 11.4148 13.131C11.4148 13.2488 11.494 13.2617 11.662 13.2617H12.2283C12.5245 13.2617 12.859 13.2784 13.0935 13.4025C13.2002 13.4558 13.2887 13.5413 13.3474 13.6476C13.4131 13.7779 13.4448 13.9237 13.4392 14.0705C13.4429 14.2134 13.4166 14.3555 13.362 14.4868C13.3065 14.6125 13.2179 14.7195 13.1063 14.7956C12.8604 14.9694 12.4708 15.0542 11.9153 15.0542ZM11.3129 13.8405C11.2181 13.96 11.165 14.109 11.1622 14.2635C11.1622 14.4336 11.2114 14.5371 11.3264 14.6096C11.4636 14.6961 11.6967 14.7365 12.0599 14.7365C12.3749 14.7365 12.6011 14.6998 12.7512 14.6245C12.8285 14.5907 12.8938 14.5331 12.9383 14.4596C12.9828 14.3861 13.0042 14.3002 12.9998 14.2137C13.0053 14.1429 12.9861 14.0724 12.9456 14.0151C12.9051 13.9577 12.846 13.9172 12.7791 13.901C12.6361 13.8505 12.4282 13.8403 12.1383 13.8403H11.3127L11.3129 13.8405ZM12.0297 10.8532C11.9519 10.8505 11.8745 10.8657 11.8031 10.8977C11.7316 10.9298 11.668 10.9778 11.6168 11.0384C11.499 11.1805 11.4392 11.3967 11.4392 11.6809C11.4392 11.9794 11.4931 12.1912 11.6043 12.3281C11.7027 12.4496 11.8438 12.5086 12.0357 12.5086C12.1106 12.5125 12.1854 12.4983 12.254 12.4671C12.3227 12.4359 12.3833 12.3886 12.4312 12.3289C12.5406 12.1891 12.5963 11.9669 12.5963 11.6686C12.5963 11.3797 12.5436 11.1655 12.4396 11.0321C12.3898 10.9711 12.3266 10.923 12.2554 10.8919C12.1842 10.8609 12.1068 10.8476 12.0297 10.8532Z" fill="#605444"/>
<path d="M12.9277 10.5392C12.9277 10.5392 12.5934 10.04 12.7242 9.67926C12.8722 9.27188 13.2698 9.01118 13.2698 9.01118C13.2698 9.01118 13.4866 9.56647 13.4043 9.88417C13.3058 10.2637 12.9277 10.5392 12.9277 10.5392Z" fill="#8CC63F"/>
</g>
<defs>
<clipPath id="clip0_31_282">
<rect width="24" height="28" fill="white"/>
</clipPath>
</defs>
</svg>
